<?xml version="1.0" standalone="no"?>
<!DOCTYPE svg PUBLIC "-//W3C//DTD SVG 20010904//EN"
 "http://www.w3.org/TR/2001/REC-SVG-20010904/DTD/svg10.dtd">
<svg version="1.0" xmlns="http://www.w3.org/2000/svg"
 width="230.000000pt" height="230.000000pt" viewBox="0 0 230.000000 230.000000"
 preserveAspectRatio="xMidYMid meet">

<g transform="translate(0.000000,230.000000) scale(0.100000,-0.100000)"
fill="#000000" stroke="none">
<path d="M1030 1877 c-87 -30 -134 -67 -167 -135 -34 -69 -38 -167 -9 -249 23
-68 97 -182 169 -259 31 -34 57 -68 56 -75 0 -16 -112 -115 -180 -160 -98 -65
-214 -87 -286 -53 -43 21 -81 70 -98 129 l-14 45 188 0 c205 0 220 4 207 55
l-6 25 -229 0 c-271 0 -261 4 -242 -97 42 -229 230 -323 444 -220 72 34 210
132 256 181 14 14 30 26 36 26 17 0 122 -127 168 -203 83 -136 83 -240 0 -319
-22 -21 -98 -58 -119 -58 -2 0 -4 82 -4 183 0 100 -3 192 -6 205 -8 26 -48 39
-69 22 -13 -10 -15 -51 -15 -244 0 -167 3 -235 12 -244 18 -18 67 -15 140 8
83 25 139 67 175 127 25 44 28 57 28 143 0 83 -4 103 -28 154 -33 71 -98 163
-169 241 l-52 58 57 53 c69 64 160 128 223 154 61 27 152 27 204 0 42 -21 85
-83 96 -138 l7 -32 -206 0 c-171 0 -207 -2 -217 -15 -10 -12 -10 -21 -2 -40
l12 -25 244 0 c175 0 247 3 252 12 12 19 5 82 -17 153 -54 177 -237 244 -425
156 -72 -34 -140 -81 -237 -164 -57 -50 -57 -50 -78 -31 -44 40 -141 169 -170
226 -51 101 -51 200 -2 259 25 30 112 79 141 79 9 0 12 -47 12 -200 l0 -200
26 -12 c23 -11 29 -10 45 11 17 21 19 43 19 238 0 129 -4 222 -10 234 -15 26
-76 25 -160 -4z"/>
</g>
</svg>
