<?xml version="1.0" standalone="no"?>
<!DOCTYPE svg PUBLIC "-//W3C//DTD SVG 20010904//EN"
 "http://www.w3.org/TR/2001/REC-SVG-20010904/DTD/svg10.dtd">
<svg version="1.0" xmlns="http://www.w3.org/2000/svg"
 width="236.000000pt" height="180.000000pt" viewBox="0 0 236.000000 180.000000"
 preserveAspectRatio="xMidYMid meet">

<g transform="translate(0.000000,180.000000) scale(0.100000,-0.100000)"
fill="#000000" stroke="none">
<path d="M1962 1419 c-103 -20 -183 -85 -230 -188 -38 -80 -37 -192 0 -272 51
-111 148 -178 269 -187 135 -10 248 53 309 172 32 63 35 76 35 155 0 72 -4 95
-26 141 -46 97 -122 157 -227 179 -59 12 -69 12 -130 0z m153 -98 c86 -39 138
-121 139 -216 0 -74 -17 -126 -57 -171 -50 -58 -98 -77 -183 -72 -61 3 -79 8
-115 33 -117 82 -135 270 -36 374 65 68 170 90 252 52z"/>
<path d="M152 1106 c-78 -172 -142 -316 -142 -320 0 -4 20 -6 45 -4 l46 3 34
75 34 75 163 3 163 2 34 -80 34 -80 49 0 c27 0 48 4 46 9 -2 4 -66 148 -143
319 l-140 311 -41 1 -40 0 -142 -314z m243 55 c30 -68 55 -125 55 -127 0 -2
-54 -4 -119 -4 l-120 0 45 102 c56 126 74 161 80 156 2 -3 29 -60 59 -127z"/>
<path d="M660 1207 c0 -254 9 -299 74 -363 98 -99 287 -98 383 2 65 67 73 108
73 361 l0 213 -44 0 -45 0 -3 -229 c-3 -215 -4 -231 -24 -258 -39 -52 -81 -73
-149 -73 -77 0 -120 25 -152 90 -22 42 -23 56 -23 257 l0 213 -45 0 -45 0 0
-213z"/>
<path d="M1220 1370 l0 -50 100 0 100 0 0 -275 0 -275 55 0 55 0 0 275 0 275
105 0 105 0 0 50 0 50 -260 0 -260 0 0 -50z"/>
<path d="M132 478 c-15 -15 -15 -61 0 -76 9 -9 251 -12 1029 -12 912 0 1019 2
1033 16 19 18 21 55 4 72 -17 17 -2049 17 -2066 0z"/>
</g>
</svg>
