<?xml version="1.0" standalone="no"?>
<!DOCTYPE svg PUBLIC "-//W3C//DTD SVG 20010904//EN"
 "http://www.w3.org/TR/2001/REC-SVG-20010904/DTD/svg10.dtd">
<svg version="1.0" xmlns="http://www.w3.org/2000/svg"
 width="99.000000pt" height="51.000000pt" viewBox="0 0 99.000000 51.000000"
 preserveAspectRatio="xMidYMid meet">

<g transform="translate(0.000000,51.000000) scale(0.100000,-0.100000)"
fill="#000000" stroke="none">
<path d="M160 255 l0 -145 90 0 c73 0 90 3 90 15 0 12 -14 15 -70 15 l-70 0 0
130 c0 123 -1 130 -20 130 -19 0 -20 -7 -20 -145z"/>
<path d="M370 255 l0 -145 110 0 c91 0 110 3 110 15 0 12 -17 15 -90 15 l-90
0 0 50 0 50 80 0 c64 0 80 3 80 15 0 12 -16 15 -80 15 l-80 0 0 50 0 50 85 0
c69 0 85 3 85 15 0 12 -18 15 -105 15 l-105 0 0 -145z"/>
<path d="M630 255 l0 -145 75 0 c94 0 127 15 149 70 20 51 20 99 1 148 -22 55
-58 72 -149 72 l-76 0 0 -145z m175 88 c25 -26 27 -32 23 -97 -5 -88 -23 -106
-109 -106 l-59 0 0 115 0 115 59 0 c50 0 62 -4 86 -27z"/>
</g>
</svg>
