<?xml version="1.0" standalone="no"?>
<!DOCTYPE svg PUBLIC "-//W3C//DTD SVG 20010904//EN"
 "http://www.w3.org/TR/2001/REC-SVG-20010904/DTD/svg10.dtd">
<svg version="1.0" xmlns="http://www.w3.org/2000/svg"
 width="230.000000pt" height="230.000000pt" viewBox="0 0 230.000000 230.000000"
 preserveAspectRatio="xMidYMid meet">

<g transform="translate(0.000000,230.000000) scale(0.100000,-0.100000)"
fill="#000000" stroke="none">
<path d="M971 2270 c-149 -40 -259 -107 -365 -221 -69 -74 -149 -215 -162
-285 -8 -44 12 -70 48 -61 18 5 29 23 50 80 72 192 245 348 449 403 78 21 231
23 309 5 187 -45 357 -180 440 -348 37 -74 70 -199 70 -263 0 -51 13 -70 46
-70 16 0 44 26 98 92 79 96 91 129 56 148 -26 14 -49 2 -84 -45 -16 -20 -30
-34 -32 -32 -3 2 -14 37 -25 76 -36 134 -110 254 -212 347 -84 76 -156 119
-264 157 -78 27 -103 31 -218 34 -106 2 -144 -1 -204 -17z"/>
<path d="M1133 1912 c-7 -4 -40 -69 -73 -145 -51 -114 -59 -140 -50 -157 8
-15 19 -20 38 -18 23 2 33 15 63 78 20 41 39 75 43 75 8 0 96 -199 96 -216 0
-5 -65 -9 -145 -9 -169 0 -147 16 -224 -159 -56 -124 -61 -155 -31 -171 34
-18 51 2 106 126 l53 119 117 3 c90 2 122 6 135 18 19 17 15 26 95 -165 40
-96 61 -118 97 -99 9 5 17 19 17 32 0 28 -265 653 -288 679 -16 18 -30 21 -49
9z"/>
<path d="M429 1588 c-9 -7 -46 -50 -83 -95 -53 -65 -67 -88 -64 -110 2 -22 9
-29 31 -31 23 -3 36 4 64 38 19 22 37 39 39 37 3 -2 14 -37 25 -76 125 -454
637 -674 1058 -456 151 79 268 204 337 363 46 106 43 142 -14 142 -17 0 -27
-9 -38 -37 -58 -148 -122 -242 -217 -321 -63 -52 -170 -106 -252 -127 -78 -21
-242 -21 -320 0 -180 47 -345 179 -425 341 -37 76 -70 200 -70 265 0 66 -34
98 -71 67z"/>
<path d="M377 533 c-6 -9 -198 -431 -223 -490 l-14 -33 40 0 c41 0 41 0 70 65
l29 66 132 -3 131 -3 26 -62 27 -63 42 0 c36 0 41 3 36 18 -4 9 -57 127 -118
262 -108 239 -112 245 -142 248 -17 2 -33 -1 -36 -5z m77 -199 c21 -48 40 -93
43 -100 4 -11 -13 -14 -86 -14 -50 0 -91 3 -91 6 0 14 83 194 90 194 4 0 24
-39 44 -86z"/>
<path d="M1200 495 l0 -45 85 0 85 0 0 -225 0 -225 45 0 45 0 0 225 0 225 85
0 85 0 0 45 0 45 -215 0 -215 0 0 -45z"/>
<path d="M1820 531 c-81 -26 -148 -91 -174 -169 -45 -129 13 -276 132 -333 68
-34 169 -32 237 3 59 31 85 57 117 118 30 59 33 186 4 240 -26 49 -74 98 -121
122 -43 23 -152 33 -195 19z m122 -71 c148 -42 186 -252 62 -346 -33 -26 -46
-29 -109 -29 -62 0 -76 3 -107 27 -122 93 -93 293 49 343 47 17 58 18 105 5z"/>
<path d="M710 358 c0 -96 5 -191 11 -213 7 -23 28 -57 53 -81 90 -90 264 -77
332 24 34 49 44 117 44 287 l0 155 -40 0 -40 0 -1 -167 c0 -103 -5 -181 -12
-203 -17 -48 -68 -80 -126 -80 -58 0 -89 16 -118 59 -22 32 -23 43 -23 212 l0
179 -40 0 -40 0 0 -172z"/>
</g>
</svg>
