<?xml version="1.0" standalone="no"?>
<!DOCTYPE svg PUBLIC "-//W3C//DTD SVG 20010904//EN"
 "http://www.w3.org/TR/2001/REC-SVG-20010904/DTD/svg10.dtd">
<svg version="1.0" xmlns="http://www.w3.org/2000/svg"
 width="230.000000pt" height="230.000000pt" viewBox="0 0 230.000000 230.000000"
 preserveAspectRatio="xMidYMid meet">

<g transform="translate(0.000000,230.000000) scale(0.100000,-0.100000)"
fill="#000000" stroke="none">
<path d="M1092 2288 c-7 -7 -12 -44 -12 -97 l0 -85 -43 42 c-52 51 -93 57
-103 16 -6 -23 3 -36 70 -103 l76 -76 0 -141 c0 -95 4 -144 12 -152 19 -19 66
-15 78 7 5 11 10 80 10 153 l0 134 70 69 c60 60 70 74 68 100 -2 25 -8 31 -32
33 -22 3 -37 -5 -67 -34 l-39 -38 0 76 c0 56 -4 81 -16 92 -18 19 -55 21 -72
4z"/>
<path d="M656 2014 c-20 -19 -20 -28 -1 -89 8 -27 13 -51 11 -52 -2 -2 -31 12
-65 32 -71 42 -114 44 -119 7 -5 -30 9 -45 74 -83 30 -17 54 -34 54 -39 0 -4
-21 -13 -47 -20 -58 -14 -73 -26 -73 -56 0 -41 28 -45 126 -18 49 13 98 24
109 24 20 0 305 -158 305 -169 0 -10 -286 -171 -303 -171 -8 0 -59 12 -112 26
-104 27 -125 24 -125 -21 0 -29 13 -39 73 -55 26 -7 47 -16 47 -20 0 -5 -29
-25 -65 -45 -50 -28 -65 -41 -65 -58 0 -27 17 -47 41 -47 10 0 46 16 79 36 34
20 63 34 65 32 3 -2 -2 -26 -11 -53 -17 -59 -12 -91 17 -100 34 -11 53 18 79
121 29 111 11 94 226 218 l151 86 175 -101 174 -101 28 -104 c30 -113 47 -135
87 -113 22 11 23 28 3 118 l-7 35 66 -37 c74 -42 102 -46 117 -17 16 30 0 51
-69 89 -34 19 -61 38 -61 41 0 4 26 14 59 23 60 17 76 34 66 68 -10 29 -36 30
-130 4 -50 -14 -98 -25 -108 -25 -25 0 -299 160 -294 173 5 15 270 167 292
167 11 0 61 -11 110 -24 80 -22 92 -23 113 -10 43 28 21 65 -51 84 -26 7 -50
16 -52 20 -3 5 24 24 59 44 68 38 82 56 66 87 -16 28 -52 23 -117 -16 -31 -19
-59 -33 -61 -31 -2 2 2 31 9 64 14 66 5 92 -31 92 -28 0 -39 -21 -66 -122 -14
-51 -31 -99 -38 -106 -7 -7 -86 -55 -176 -107 l-164 -94 -40 24 c-23 13 -101
58 -175 102 l-135 78 -27 104 c-33 121 -54 145 -93 105z"/>
<path d="M1087 1413 c-4 -3 -7 -69 -7 -146 l0 -141 -75 -77 c-73 -75 -87 -103
-63 -127 22 -22 52 -12 95 30 l43 42 0 -85 c0 -90 8 -109 45 -109 40 0 55 30
55 109 l0 73 41 -36 c52 -47 92 -48 97 -1 2 26 -8 40 -68 100 l-70 69 0 134
c0 73 -5 142 -10 153 -11 19 -68 28 -83 12z"/>
<path d="M283 524 c-47 -17 -113 -77 -140 -126 -25 -47 -25 -198 0 -249 77
-156 283 -192 422 -76 l30 26 -27 27 -27 28 -23 -21 c-39 -35 -85 -53 -138
-53 -57 0 -93 15 -132 57 -36 37 -48 73 -48 139 0 166 181 252 304 143 l34
-29 25 31 25 32 -27 22 c-71 60 -192 81 -278 49z"/>
<path d="M789 527 c-155 -58 -222 -234 -146 -384 47 -92 124 -137 232 -137
164 1 276 124 263 288 -8 97 -59 175 -143 218 -50 26 -156 34 -206 15z m133
-67 c111 -31 169 -166 119 -275 -33 -72 -86 -105 -167 -105 -206 0 -253 306
-58 375 48 17 59 18 106 5z"/>
<path d="M1390 531 c-52 -17 -89 -42 -124 -83 -113 -132 -72 -345 82 -419 36
-18 64 -23 117 -23 123 0 218 70 252 183 38 131 -16 263 -132 323 -43 23 -152
33 -195 19z m122 -71 c148 -42 186 -252 62 -346 -33 -26 -46 -29 -109 -29 -62
0 -76 3 -107 27 -122 93 -93 293 49 343 47 17 58 18 105 5z"/>
<path d="M1800 270 l0 -270 190 0 190 0 0 45 0 45 -140 0 -140 0 0 225 0 225
-50 0 -50 0 0 -270z"/>
</g>
</svg>
