<?xml version="1.0" standalone="no"?>
<!DOCTYPE svg PUBLIC "-//W3C//DTD SVG 20010904//EN"
 "http://www.w3.org/TR/2001/REC-SVG-20010904/DTD/svg10.dtd">
<svg version="1.0" xmlns="http://www.w3.org/2000/svg"
 width="233.000000pt" height="233.000000pt" viewBox="0 0 233.000000 233.000000"
 preserveAspectRatio="xMidYMid meet">

<g transform="translate(0.000000,233.000000) scale(0.100000,-0.100000)"
fill="#000000" stroke="none">
<path d="M985 2293 c-54 -55 -265 -385 -337 -530 -80 -159 -122 -279 -137
-383 -31 -226 108 -435 343 -518 102 -37 260 -37 362 0 89 31 170 85 229 150
48 54 50 59 35 89 -18 33 -50 22 -109 -38 -31 -32 -79 -70 -107 -85 -234 -126
-530 -37 -638 191 -62 131 -35 285 94 546 60 120 188 329 269 438 35 49 45 56
57 46 24 -20 205 -297 259 -397 35 -65 57 -94 73 -98 26 -7 52 11 52 35 0 26
-111 219 -212 369 -149 220 -176 241 -233 185z"/>
<path d="M1267 1565 c-64 -24 -99 -54 -95 -83 5 -45 30 -49 90 -17 74 40 148
39 241 -4 51 -23 82 -31 125 -31 71 0 122 27 122 65 0 37 -28 47 -82 27 -43
-15 -48 -15 -89 2 -141 59 -230 71 -312 41z"/>
<path d="M1290 1357 c-26 -7 -63 -23 -84 -36 -32 -20 -37 -28 -34 -55 4 -42
33 -45 103 -11 70 35 142 32 230 -9 84 -38 140 -44 198 -18 37 17 47 26 47 45
0 38 -25 53 -64 39 -51 -19 -89 -14 -158 18 -77 36 -170 46 -238 27z"/>
<path d="M430 269 l0 -261 133 4 c148 5 181 15 245 72 119 108 106 313 -26
397 -65 41 -101 49 -234 49 l-118 0 0 -261z m283 167 c51 -25 89 -83 95 -145
12 -132 -81 -211 -248 -211 l-50 0 0 191 0 191 83 -4 c53 -2 95 -10 120 -22z"/>
<path d="M970 270 l0 -260 40 0 40 0 0 100 0 100 63 0 62 -1 74 -99 73 -100
44 0 c24 0 44 2 44 5 0 3 -31 47 -70 99 -38 51 -70 96 -70 99 0 4 18 16 41 27
74 38 101 151 52 219 -11 14 -39 36 -63 49 -40 20 -59 22 -187 22 l-143 0 0
-260z m285 176 c59 -25 73 -84 31 -133 -23 -27 -28 -28 -130 -31 l-106 -4 0
91 0 91 85 0 c51 0 99 -6 120 -14z"/>
<path d="M1400 524 c0 -3 47 -74 105 -157 l105 -152 0 -102 0 -103 40 0 40 0
0 106 0 105 98 142 c54 78 102 148 106 155 5 9 -5 12 -38 12 l-45 0 -78 -115
c-43 -63 -80 -115 -83 -115 -4 0 -41 52 -84 115 l-77 115 -45 0 c-24 0 -44 -3
-44 -6z"/>
</g>
</svg>
