<?xml version="1.0" standalone="no"?>
<!DOCTYPE svg PUBLIC "-//W3C//DTD SVG 20010904//EN"
 "http://www.w3.org/TR/2001/REC-SVG-20010904/DTD/svg10.dtd">
<svg version="1.0" xmlns="http://www.w3.org/2000/svg"
 width="230.000000pt" height="230.000000pt" viewBox="0 0 230.000000 230.000000"
 preserveAspectRatio="xMidYMid meet">

<g transform="translate(0.000000,230.000000) scale(0.100000,-0.100000)"
fill="#000000" stroke="none">
<path d="M1030 2267 c-87 -30 -134 -67 -167 -135 -34 -69 -38 -167 -9 -249 23
-68 97 -182 169 -259 31 -34 57 -68 56 -75 0 -16 -112 -115 -180 -160 -98 -65
-214 -87 -286 -53 -43 21 -81 70 -98 129 l-14 45 188 0 c205 0 220 4 207 55
l-6 25 -229 0 c-271 0 -261 4 -242 -97 42 -229 230 -323 444 -220 72 34 210
132 256 181 14 14 30 26 36 26 17 0 122 -127 168 -203 83 -136 83 -240 0 -319
-22 -21 -98 -58 -119 -58 -2 0 -4 82 -4 183 0 100 -3 192 -6 205 -8 26 -48 39
-69 22 -13 -10 -15 -51 -15 -244 0 -167 3 -235 12 -244 18 -18 67 -15 140 8
83 25 139 67 175 127 25 44 28 57 28 143 0 83 -4 103 -28 154 -33 71 -98 163
-169 241 l-52 58 57 53 c69 64 160 128 223 154 61 27 152 27 204 0 42 -21 85
-83 96 -138 l7 -32 -206 0 c-171 0 -207 -2 -217 -15 -10 -12 -10 -21 -2 -40
l12 -25 244 0 c175 0 247 3 252 12 12 19 5 82 -17 153 -54 177 -237 244 -425
156 -72 -34 -140 -81 -237 -164 -57 -50 -57 -50 -78 -31 -44 40 -141 169 -170
226 -51 101 -51 200 -2 259 25 30 112 79 141 79 9 0 12 -47 12 -200 l0 -200
26 -12 c23 -11 29 -10 45 11 17 21 19 43 19 238 0 129 -4 222 -10 234 -15 26
-76 25 -160 -4z"/>
<path d="M1284 2226 c-16 -41 0 -58 79 -86 71 -26 116 -52 195 -110 33 -25 67
-21 77 9 9 30 -3 47 -67 92 -117 82 -269 133 -284 95z"/>
<path d="M1275 2096 c-22 -34 -11 -51 51 -75 31 -11 80 -37 109 -57 57 -38 89
-39 100 -5 9 29 -4 48 -56 82 -50 32 -154 78 -176 79 -7 0 -19 -11 -28 -24z"/>
<path d="M782 1158 c-34 -34 -1 -79 97 -128 110 -55 161 -57 161 -6 0 28 -13
39 -62 55 -20 7 -64 30 -98 52 -65 42 -79 46 -98 27z"/>
<path d="M682 1078 c-40 -40 24 -104 172 -174 88 -42 151 -50 170 -22 18 29
-5 51 -85 80 -41 15 -107 50 -146 78 -76 52 -91 58 -111 38z"/>
<path d="M460 270 l0 -270 45 0 45 0 0 110 0 110 135 0 135 0 0 45 0 45 -135
0 -135 0 0 70 0 70 155 0 155 0 0 45 0 45 -200 0 -200 0 0 -270z"/>
<path d="M936 282 c-64 -141 -116 -260 -116 -265 0 -4 17 -7 38 -7 38 0 39 1
67 65 l27 65 132 0 131 0 27 -63 c26 -60 27 -62 67 -65 23 -2 41 0 41 4 0 3
-53 123 -117 265 l-116 259 -32 0 -32 0 -117 -258z m202 31 l41 -93 -94 0
c-109 0 -104 -14 -41 124 21 46 40 76 45 70 5 -5 27 -51 49 -101z"/>
<path d="M1410 271 l0 -261 40 0 40 0 0 186 c0 120 3 183 10 179 5 -3 73 -87
151 -186 125 -158 144 -179 170 -179 l29 0 0 260 0 260 -35 0 -35 0 0 -181 c0
-122 -3 -180 -11 -177 -5 2 -72 82 -148 178 -129 165 -139 175 -174 178 l-37
3 0 -260z"/>
</g>
</svg>
