<?xml version="1.0" standalone="no"?>
<!DOCTYPE svg PUBLIC "-//W3C//DTD SVG 20010904//EN"
 "http://www.w3.org/TR/2001/REC-SVG-20010904/DTD/svg10.dtd">
<svg version="1.0" xmlns="http://www.w3.org/2000/svg"
 width="234.000000pt" height="234.000000pt" viewBox="0 0 234.000000 234.000000"
 preserveAspectRatio="xMidYMid meet">

<g transform="translate(0.000000,234.000000) scale(0.100000,-0.100000)"
fill="#000000" stroke="none">
<path d="M1106 2324 c-13 -12 -16 -41 -16 -148 0 -142 5 -156 50 -156 46 0 50
14 50 162 0 126 -2 138 -19 148 -27 14 -47 13 -65 -6z"/>
<path d="M584 2095 c-4 -8 -4 -25 0 -38 7 -28 168 -187 189 -187 20 0 47 27
47 47 0 9 -39 55 -87 104 -69 71 -92 89 -115 89 -16 0 -31 -7 -34 -15z"/>
<path d="M1547 2022 c-48 -49 -87 -96 -87 -105 0 -20 27 -47 47 -47 9 0 56 39
105 87 78 77 89 91 86 118 -3 25 -8 30 -33 33 -27 3 -41 -8 -118 -86z"/>
<path d="M1016 1941 c-293 -97 -381 -464 -163 -680 112 -111 278 -149 427 -96
196 69 310 289 256 493 -32 118 -110 210 -224 265 -85 40 -207 47 -296 18z
m237 -87 c67 -23 144 -96 178 -169 24 -50 29 -73 29 -136 0 -64 -5 -85 -30
-137 -33 -66 -85 -118 -152 -154 -36 -19 -58 -23 -138 -23 -80 0 -102 4 -138
23 -63 33 -114 84 -148 144 -26 48 -29 62 -29 148 0 84 3 101 27 145 58 110
163 175 284 175 39 0 91 -7 117 -16z"/>
<path d="M1622 1588 c-7 -7 -12 -24 -12 -38 0 -45 14 -50 156 -50 107 0 136 3
148 16 19 18 20 38 6 65 -10 17 -22 19 -148 19 -94 0 -142 -4 -150 -12z"/>
<path d="M372 1578 c-6 -6 -12 -20 -12 -29 0 -34 24 -40 160 -37 114 3 134 6
144 21 8 12 8 22 0 35 -10 15 -30 17 -145 20 -96 2 -138 -1 -147 -10z"/>
<path d="M668 1143 c-78 -77 -89 -91 -86 -118 3 -25 8 -30 33 -33 27 -3 41 8
118 86 48 49 87 96 87 105 0 9 -7 23 -16 31 -8 9 -22 16 -31 16 -9 0 -56 -39
-105 -87z"/>
<path d="M1476 1214 c-9 -8 -16 -22 -16 -31 0 -9 39 -56 87 -105 77 -78 91
-89 118 -86 25 3 30 8 33 33 3 27 -8 41 -86 118 -49 48 -96 87 -105 87 -9 0
-23 -7 -31 -16z"/>
<path d="M1112 1074 c-21 -14 -22 -22 -22 -149 0 -130 1 -135 24 -150 23 -16
54 -11 68 9 4 6 8 70 8 143 0 125 -1 133 -22 147 -12 9 -25 16 -28 16 -3 0
-16 -7 -28 -16z"/>
<path d="M240 270 l0 -270 45 0 45 0 0 115 0 115 125 0 125 0 0 -115 0 -115
45 0 45 0 0 270 0 270 -45 0 -45 0 0 -110 0 -110 -125 0 -125 0 0 110 0 110
-45 0 -45 0 0 -270z"/>
<path d="M760 270 l0 -270 200 0 200 0 0 45 0 45 -155 0 -155 0 0 70 0 70 140
0 140 0 0 45 0 45 -140 0 -140 0 0 65 0 65 155 0 155 0 0 45 0 45 -200 0 -200
0 0 -270z"/>
<path d="M1396 488 c-79 -178 -209 -464 -213 -471 -2 -4 14 -7 37 -7 41 0 41
0 71 65 l29 65 131 0 130 0 29 -65 c29 -65 29 -65 70 -65 23 0 40 4 38 9 -1 5
-55 124 -118 265 l-115 256 -33 0 c-29 0 -34 -5 -56 -52z m139 -247 c6 -20 4
-21 -84 -21 -50 0 -91 2 -91 5 0 10 73 169 84 184 8 10 19 -5 47 -66 20 -44
40 -90 44 -102z"/>
<path d="M1670 495 l0 -45 85 0 85 0 0 -225 0 -225 45 0 45 0 0 225 0 225 85
0 85 0 0 45 0 45 -215 0 -215 0 0 -45z"/>
</g>
</svg>
