<?xml version="1.0" standalone="no"?>
<!DOCTYPE svg PUBLIC "-//W3C//DTD SVG 20010904//EN"
 "http://www.w3.org/TR/2001/REC-SVG-20010904/DTD/svg10.dtd">
<svg version="1.0" xmlns="http://www.w3.org/2000/svg"
 width="110.000000pt" height="110.000000pt" viewBox="0 0 110.000000 110.000000"
 preserveAspectRatio="xMidYMid meet">

<g transform="translate(0.000000,110.000000) scale(0.100000,-0.100000)"
fill="#000000" stroke="none">
<path d="M503 1046 l-28 -24 0 -232 0 -232 28 -24 c35 -30 59 -30 94 0 l28 24
0 232 0 232 -28 24 c-15 13 -37 24 -47 24 -10 0 -32 -11 -47 -24z"/>
<path d="M275 895 c-80 -40 -174 -192 -195 -314 -33 -197 79 -409 264 -497
146 -69 266 -69 412 0 185 88 297 300 264 497 -28 167 -172 350 -252 320 -34
-13 -51 -37 -51 -71 0 -22 15 -45 60 -93 72 -77 93 -130 93 -231 0 -121 -65
-226 -175 -284 -44 -24 -61 -27 -145 -27 -84 0 -101 3 -145 27 -110 58 -175
163 -175 284 0 101 21 154 93 231 46 49 60 71 60 94 0 55 -57 89 -108 64z"/>
</g>
</svg>
