<?xml version="1.0" standalone="no"?>
<!DOCTYPE svg PUBLIC "-//W3C//DTD SVG 20010904//EN"
 "http://www.w3.org/TR/2001/REC-SVG-20010904/DTD/svg10.dtd">
<svg version="1.0" xmlns="http://www.w3.org/2000/svg"
 width="230.000000pt" height="230.000000pt" viewBox="0 0 230.000000 230.000000"
 preserveAspectRatio="xMidYMid meet">

<g transform="translate(0.000000,230.000000) scale(0.100000,-0.100000)"
fill="#000000" stroke="none">
<path d="M1024 2160 c-132 -24 -261 -90 -356 -183 -123 -121 -188 -265 -196
-438 -9 -206 51 -364 192 -504 134 -133 284 -195 470 -195 158 0 296 48 418
145 103 82 196 230 229 365 19 76 17 240 -4 319 -62 231 -248 417 -476 476
-78 20 -209 27 -277 15z m290 -109 c123 -43 225 -121 294 -226 65 -96 92 -177
99 -290 9 -163 -41 -303 -152 -423 -252 -272 -682 -243 -895 60 -72 102 -103
203 -102 333 0 117 21 196 79 294 73 122 219 230 361 266 80 20 238 13 316
-14z"/>
<path d="M1092 1888 c-9 -9 -12 -69 -12 -209 0 -166 2 -200 16 -213 23 -23
405 -24 424 -1 17 20 16 65 -1 76 -8 5 -87 9 -176 9 l-163 0 0 159 c0 88 -3
166 -6 175 -7 19 -64 22 -82 4z"/>
<path d="M613 691 c-91 -23 -169 -102 -194 -196 -15 -55 -6 -152 19 -200 99
-194 385 -194 484 0 47 90 32 230 -33 308 -58 71 -186 111 -276 88z m159 -94
c142 -86 127 -298 -24 -362 -150 -62 -301 95 -246 256 15 46 43 80 86 106 51
31 133 31 184 0z"/>
<path d="M1030 425 l0 -275 45 0 45 0 0 110 0 110 140 0 140 0 0 45 0 45 -140
0 -140 0 0 75 0 75 155 0 155 0 0 45 0 45 -200 0 -200 0 0 -275z"/>
<path d="M1490 425 l0 -275 45 0 45 0 0 110 0 110 140 0 140 0 0 45 0 45 -140
0 -140 0 0 75 0 75 155 0 155 0 0 45 0 45 -200 0 -200 0 0 -275z"/>
</g>
</svg>
